<svg width="133.000000" height="42.000000" viewBox="0 0 133 42" fill="none" xmlns="http://www.w3.org/2000/svg" xmlns:xlink="http://www.w3.org/1999/xlink">
	<desc>
			Created with Pixso.
	</desc>
	<defs/>
	<path id="logotype" d="M31.38 32.18L31.38 32.18C28.87 37.95 23.08 42 16.35 42C7.33 42 0 34.72 0 25.77C0 17.8 5.82 11.16 13.46 9.8C15.98 4.04 21.76 0 28.49 0C37.51 0 44.84 7.27 44.84 16.22C44.84 24.06 39.21 30.77 31.45 32.18L31.38 32.18ZM31.72 31.32C38.89 29.82 44.05 23.54 44.05 16.22C44.05 7.71 37.07 0.78 28.49 0.78C22.27 0.78 16.89 4.42 14.4 9.67C15.04 9.59 15.69 9.55 16.35 9.55C25.37 9.55 32.71 16.83 32.71 25.77C32.71 27.72 32.36 29.59 31.72 31.32ZM14.03 10.51C13.32 12.27 12.92 14.2 12.92 16.22C12.92 19.89 14.25 23.45 16.65 26.24C16.72 26.32 16.75 26.41 16.75 26.5C16.75 26.61 16.7 26.72 16.61 26.8C16.44 26.94 16.19 26.92 16.05 26.75C13.52 23.82 12.13 20.08 12.13 16.22C12.13 14.27 12.48 12.4 13.12 10.67C6.08 12.15 0.79 18.36 0.79 25.77C0.79 34.28 7.77 41.21 16.35 41.21C24.93 41.21 31.91 34.28 31.91 25.77C31.91 17.26 24.93 10.33 16.35 10.33C15.56 10.33 14.79 10.39 14.03 10.51ZM58.87 19.26L58.2 19.77C57.4 18.78 56.37 18.28 55.12 18.28C54.1 18.28 53.22 18.64 52.48 19.36C51.75 20.08 51.38 20.97 51.38 22.02C51.38 23.06 51.74 23.93 52.46 24.63C53.18 25.33 54.09 25.68 55.17 25.68C56.38 25.68 57.39 25.2 58.2 24.26L58.87 24.78C58.44 25.34 57.91 25.76 57.26 26.06C56.62 26.35 55.9 26.49 55.12 26.49Q53.73 26.49 52.68 25.89Q52.19 25.61 51.77 25.2C50.91 24.33 50.47 23.24 50.47 21.92C50.47 21.1 50.67 20.35 51.07 19.66C51.48 18.97 52.03 18.42 52.74 18.03C53.46 17.64 54.23 17.44 55.05 17.44C55.87 17.44 56.61 17.6 57.26 17.91Q57.8 18.17 58.23 18.54Q58.58 18.86 58.87 19.26ZM60.82 22C60.82 21.17 61.02 20.4 61.42 19.7C61.82 19 62.36 18.44 63.06 18.04C63.75 17.64 64.5 17.44 65.32 17.44C66.14 17.44 66.9 17.64 67.6 18.04C68.31 18.44 68.87 18.98 69.26 19.69C69.67 20.38 69.87 21.14 69.87 21.97C69.87 22.78 69.67 23.54 69.28 24.25C68.88 24.94 68.33 25.49 67.63 25.89C66.93 26.29 66.17 26.49 65.35 26.49C64.54 26.49 63.78 26.3 63.08 25.9C62.38 25.5 61.83 24.96 61.42 24.26C61.02 23.56 60.82 22.81 60.82 22ZM71.3 24.67L72.03 24.24C72.54 25.18 73.13 25.65 73.81 25.65C74.25 25.65 74.62 25.51 74.93 25.23C75.25 24.95 75.4 24.6 75.4 24.19C75.4 23.86 75.27 23.53 75.01 23.19C74.74 22.86 74.3 22.46 73.69 22C73.08 21.54 72.67 21.2 72.46 20.97C72.25 20.74 72.1 20.5 71.99 20.24C71.9 19.98 71.85 19.71 71.85 19.45C71.85 18.89 72.04 18.42 72.43 18.03C72.83 17.64 73.33 17.44 73.93 17.44C74.4 17.44 74.81 17.56 75.16 17.8C75.51 18.04 75.85 18.38 76.18 18.85L75.48 19.39C75.26 19.08 75.03 18.83 74.79 18.63C74.55 18.43 74.26 18.33 73.91 18.33C73.56 18.33 73.28 18.44 73.06 18.64C72.84 18.85 72.73 19.12 72.73 19.44C72.73 19.76 72.83 20.04 73.02 20.28C73.22 20.51 73.66 20.88 74.35 21.39C75.04 21.9 75.54 22.38 75.86 22.81C76.17 23.24 76.33 23.7 76.33 24.18C76.33 24.8 76.09 25.34 75.6 25.81C75.13 26.26 74.57 26.49 73.93 26.49C72.81 26.49 71.93 25.88 71.3 24.67ZM89.95 22Q89.95 21.24 90.18 20.56Q90.32 20.11 90.55 19.7C90.95 19 91.5 18.44 92.19 18.04Q92.65 17.78 93.15 17.63Q93.77 17.44 94.45 17.44C95.27 17.44 96.03 17.64 96.74 18.04C97.45 18.44 98 18.98 98.4 19.69C98.8 20.38 99.01 21.14 99.01 21.97Q99.01 22.62 98.84 23.22Q98.69 23.75 98.41 24.25C98.01 24.94 97.46 25.49 96.76 25.89C96.07 26.29 95.31 26.49 94.49 26.49C93.67 26.49 92.92 26.3 92.22 25.9C91.51 25.5 90.96 24.96 90.55 24.26Q90.27 23.77 90.12 23.24Q89.95 22.64 89.95 22ZM100.43 24.67L101.16 24.24Q101.83 25.48 102.7 25.63Q102.82 25.65 102.94 25.65C103.38 25.65 103.76 25.51 104.07 25.23C104.38 24.95 104.54 24.6 104.54 24.19C104.54 23.86 104.4 23.53 104.14 23.19C103.88 22.86 103.44 22.46 102.82 22C102.22 21.54 101.81 21.2 101.59 20.97C101.39 20.74 101.23 20.5 101.13 20.24C101.03 19.98 100.98 19.71 100.98 19.45C100.98 18.89 101.18 18.42 101.57 18.03C101.97 17.64 102.47 17.44 103.06 17.44C103.53 17.44 103.95 17.56 104.3 17.8C104.65 18.04 104.99 18.38 105.31 18.85L104.62 19.39C104.4 19.08 104.16 18.83 103.93 18.63C103.69 18.43 103.39 18.33 103.04 18.33C102.7 18.33 102.41 18.44 102.19 18.64C101.98 18.85 101.87 19.12 101.87 19.44C101.87 19.76 101.96 20.04 102.16 20.28C102.35 20.51 102.8 20.88 103.48 21.39C104.18 21.9 104.68 22.38 104.99 22.81C105.31 23.24 105.47 23.7 105.47 24.18C105.47 24.8 105.22 25.34 104.74 25.81C104.26 26.26 103.7 26.49 103.06 26.49C101.94 26.49 101.06 25.88 100.43 24.67ZM116.26 22C116.26 21.17 116.46 20.4 116.86 19.7C117.26 19 117.81 18.44 118.5 18.04C119.19 17.64 119.95 17.44 120.76 17.44C121.58 17.44 122.34 17.64 123.04 18.04C123.75 18.44 124.31 18.98 124.71 19.69C125.11 20.38 125.32 21.14 125.32 21.97Q125.32 22.62 125.15 23.22Q125 23.75 124.72 24.25C124.32 24.94 123.77 25.49 123.07 25.89C122.37 26.29 121.62 26.49 120.8 26.49C119.98 26.49 119.22 26.3 118.52 25.9C117.82 25.5 117.27 24.96 116.86 24.26C116.46 23.56 116.26 22.81 116.26 22ZM78.36 26.28L79.57 17.66L79.71 17.66L83.2 24.73L86.67 17.66L86.8 17.66L88.03 26.28L87.18 26.28L86.34 20.11L83.31 26.28L83.09 26.28L80.02 20.06L79.18 26.28L78.36 26.28ZM107.86 17.66L108.73 17.66L108.73 21.27L113.1 21.27L113.1 17.66L113.96 17.66L113.96 26.28L113.1 26.28L113.1 22.11L108.73 22.11L108.73 26.28L107.86 26.28L107.86 17.66ZM127.63 17.66L129.34 17.66C130.35 17.66 131.01 17.7 131.32 17.78C131.63 17.86 131.92 18 132.17 18.2C132.43 18.4 132.64 18.65 132.78 18.95C132.92 19.25 133 19.58 133 19.95C133 20.54 132.84 21.03 132.52 21.4C132.2 21.78 131.8 22.02 131.31 22.12C130.83 22.22 130.09 22.27 129.1 22.27L128.49 22.27L128.49 26.28L127.63 26.28L127.63 17.66ZM68.98 21.97C68.98 20.94 68.62 20.06 67.9 19.35C67.19 18.64 66.33 18.28 65.33 18.28C64.3 18.28 63.44 18.64 62.75 19.36C62.06 20.08 61.72 20.95 61.72 21.98C61.72 23 62.07 23.87 62.78 24.58C63.49 25.3 64.35 25.65 65.35 25.65C66.36 25.65 67.21 25.3 67.91 24.61C68.62 23.91 68.98 23.03 68.98 21.97ZM98.11 21.97C98.11 20.94 97.75 20.06 97.03 19.35Q96.5 18.82 95.86 18.55Q95.22 18.28 94.46 18.28C93.43 18.28 92.57 18.64 91.88 19.36C91.19 20.08 90.85 20.95 90.85 21.98C90.85 23 91.21 23.87 91.92 24.58Q92.45 25.12 93.09 25.39Q93.74 25.65 94.49 25.65C95.49 25.65 96.34 25.3 97.05 24.61C97.76 23.91 98.11 23.03 98.11 21.97ZM124.42 21.97C124.42 20.94 124.06 20.06 123.34 19.35Q122.81 18.82 122.17 18.55Q121.52 18.28 120.77 18.28Q119.93 18.28 119.24 18.61Q118.66 18.87 118.19 19.36C117.5 20.08 117.16 20.95 117.16 21.98C117.16 23 117.51 23.87 118.22 24.58C118.93 25.3 119.79 25.65 120.8 25.65C121.8 25.65 122.65 25.3 123.35 24.61C124.06 23.91 124.42 23.03 124.42 21.97ZM128.49 18.5L128.49 21.44L129.93 21.44C130.8 21.46 131.38 21.32 131.67 21.02C131.96 20.72 132.1 20.36 132.1 19.95C132.1 18.98 131.4 18.5 130 18.5L128.49 18.5Z" fill="#FFFDFC" fill-opacity="1.000000" fill-rule="evenodd"/>
</svg>
