<svg width="98.000000" height="31.000000" viewBox="0 0 98 31" fill="none" xmlns="http://www.w3.org/2000/svg" xmlns:xlink="http://www.w3.org/1999/xlink">
	<desc>
			Created with Pixso.
	</desc>
	<defs/>
	<path id="MONO STORE" d="M63.03 12.19C62.11 12.19 61.25 12.03 60.45 11.71C59.66 11.39 58.96 10.95 58.37 10.39C57.78 9.83 57.32 9.17 56.98 8.43C56.65 7.68 56.48 6.88 56.48 6.03C56.48 5.47 56.55 4.94 56.7 4.42Q56.89 3.79 57.2 3.23Q57.28 3.1 57.36 2.98C57.64 2.53 57.98 2.13 58.37 1.76Q58.61 1.55 58.86 1.35Q59.26 1.06 59.7 0.82C60.18 0.56 60.71 0.36 61.27 0.21C61.84 0.07 62.42 0 63.03 0Q63.96 0 64.8 0.21C65.36 0.36 65.89 0.56 66.37 0.82Q66.99 1.15 67.51 1.59Q67.61 1.68 67.7 1.76C68.09 2.13 68.43 2.53 68.71 2.98C69 3.42 69.22 3.9 69.37 4.42Q69.39 4.51 69.42 4.6Q69.6 5.29 69.6 6.03Q69.6 6.88 69.37 7.66C69.22 8.19 69 8.68 68.71 9.13C68.43 9.59 68.09 10.01 67.7 10.38C67.3 10.76 66.86 11.08 66.37 11.35C65.89 11.62 65.36 11.83 64.8 11.97Q63.96 12.19 63.03 12.19ZM91.43 12.19C90.51 12.19 89.65 12.03 88.85 11.71C88.05 11.39 87.36 10.95 86.77 10.39C86.18 9.83 85.72 9.17 85.38 8.43C85.04 7.68 84.87 6.88 84.87 6.03C84.87 5.47 84.95 4.94 85.1 4.42C85.25 3.9 85.47 3.42 85.75 2.98C86.03 2.53 86.37 2.13 86.77 1.76C87.17 1.39 87.61 1.08 88.09 0.82C88.58 0.56 89.1 0.36 89.66 0.21C90.23 0.07 90.82 0 91.43 0Q92.35 0 93.2 0.21C93.76 0.36 94.28 0.56 94.77 0.82C95.26 1.08 95.7 1.39 96.09 1.76C96.49 2.13 96.83 2.53 97.11 2.98C97.39 3.42 97.61 3.9 97.76 4.42C97.92 4.94 98 5.47 98 6.03C98 6.6 97.92 7.14 97.76 7.66C97.61 8.19 97.39 8.68 97.11 9.13C96.83 9.59 96.49 10.01 96.09 10.38C95.7 10.76 95.26 11.08 94.77 11.35C94.28 11.62 93.76 11.83 93.2 11.97Q92.35 12.19 91.43 12.19ZM40.45 0.26L42.5 0.26L47.13 9.2L47.22 9.2L51.76 0.26L53.77 0.26L53.77 11.92L51.76 11.92L51.76 2.36L51.7 2.36L46.82 11.92L46.41 11.92L41.47 2.44L41.34 2.44L41.34 11.92L40.45 11.92L40.45 0.26ZM72.28 0.26L73.41 0.26L81.2 8.79L81.29 8.79L81.29 0.26L82.17 0.26L82.17 12.19L81.7 12.19L73.26 2.71L73.19 2.71L73.19 11.92L72.28 11.92L72.28 0.26ZM63.03 11.61C63.72 11.61 64.32 11.48 64.84 11.2C65.36 10.92 65.81 10.53 66.16 10.03C66.52 9.53 66.79 8.94 66.97 8.26Q67.25 7.24 67.25 6.03C67.25 5.23 67.16 4.49 66.97 3.82Q66.7 2.82 66.16 2.1C65.81 1.61 65.36 1.24 64.84 0.97Q64.06 0.57 63.03 0.57C62.34 0.57 61.73 0.7 61.2 0.97C60.68 1.24 60.24 1.61 59.89 2.1C59.53 2.58 59.27 3.15 59.09 3.82Q58.82 4.82 58.82 6.03C58.82 6.84 58.91 7.58 59.09 8.26C59.27 8.94 59.53 9.53 59.89 10.03C60.24 10.53 60.68 10.92 61.2 11.2C61.73 11.48 62.34 11.61 63.03 11.61ZM91.43 11.61C92.11 11.61 92.71 11.48 93.23 11.2C93.76 10.92 94.2 10.53 94.56 10.03C94.92 9.53 95.19 8.94 95.37 8.26Q95.65 7.24 95.65 6.03Q95.65 4.82 95.37 3.82C95.19 3.15 94.92 2.58 94.56 2.1C94.2 1.61 93.76 1.24 93.23 0.97Q92.45 0.57 91.43 0.57C90.74 0.57 90.13 0.7 89.6 0.97C89.08 1.24 88.64 1.61 88.28 2.1C87.93 2.58 87.66 3.15 87.48 3.82C87.3 4.49 87.21 5.23 87.21 6.03C87.21 6.84 87.3 7.58 87.48 8.26C87.66 8.94 87.93 9.53 88.28 10.03C88.64 10.53 89.08 10.92 89.6 11.2C90.13 11.48 90.74 11.61 91.43 11.61ZM44.35 30.26C44.64 30.26 44.93 30.22 45.22 30.14C45.5 30.06 45.76 29.94 45.99 29.79C46.21 29.63 46.4 29.44 46.53 29.22C46.67 28.99 46.74 28.73 46.74 28.43C46.74 28.07 46.64 27.75 46.45 27.48C46.27 27.2 46.02 26.94 45.72 26.71C45.41 26.48 45.06 26.26 44.67 26.05C44.28 25.85 43.88 25.64 43.48 25.44C43.07 25.23 42.67 25.02 42.27 24.79Q41.69 24.45 41.23 24.04C40.93 23.76 40.68 23.45 40.49 23.11C40.3 22.76 40.21 22.36 40.21 21.92C40.21 21.47 40.29 21.06 40.46 20.68C40.63 20.3 40.89 19.97 41.21 19.69C41.54 19.41 41.95 19.19 42.43 19.03Q43.15 18.8 44.09 18.8C44.65 18.8 45.15 18.85 45.59 18.97C46.03 19.09 46.42 19.26 46.76 19.49C47.09 19.72 47.38 20 47.61 20.33C47.84 20.67 48.03 21.06 48.18 21.5L47.15 21.95C47.03 21.6 46.88 21.27 46.7 20.98C46.51 20.68 46.29 20.42 46.03 20.21C45.77 20 45.48 19.84 45.13 19.73Q44.63 19.55 44 19.55C43.62 19.55 43.29 19.6 43.01 19.71C42.73 19.81 42.49 19.94 42.3 20.11C42.11 20.28 41.97 20.47 41.88 20.68Q41.79 20.89 41.76 21.11L41.76 21.11Q41.74 21.21 41.74 21.31C41.74 21.62 41.84 21.9 42.03 22.16C42.22 22.41 42.48 22.65 42.79 22.88C43.11 23.1 43.47 23.32 43.87 23.53C44.28 23.74 44.69 23.95 45.11 24.17C45.53 24.39 45.94 24.61 46.34 24.85Q46.95 25.2 47.42 25.62C47.74 25.9 47.99 26.2 48.18 26.54C48.38 26.86 48.47 27.23 48.47 27.64C48.47 28.11 48.38 28.54 48.2 28.95C48.02 29.36 47.75 29.71 47.39 30.02Q46.86 30.47 46.06 30.73C45.53 30.91 44.91 31 44.2 31C43.63 31 43.12 30.93 42.67 30.81C42.22 30.69 41.82 30.51 41.47 30.27C41.13 30.04 40.84 29.75 40.6 29.42C40.35 29.08 40.15 28.69 40 28.26L41.06 27.83C41.19 28.21 41.36 28.55 41.56 28.85Q41.89 29.3 42.31 29.61C42.59 29.82 42.9 29.98 43.24 30.09C43.59 30.2 43.96 30.26 44.35 30.26ZM68.58 31C67.66 31 66.8 30.83 66 30.51C65.21 30.19 64.51 29.75 63.92 29.19C63.33 28.63 62.87 27.98 62.53 27.23C62.2 26.48 62.03 25.68 62.03 24.83C62.03 24.27 62.1 23.74 62.25 23.22C62.41 22.7 62.63 22.22 62.91 21.78C63.19 21.33 63.53 20.93 63.92 20.56C64.32 20.19 64.76 19.88 65.25 19.62C65.73 19.36 66.26 19.16 66.82 19.02C67.39 18.87 67.97 18.8 68.58 18.8C69.2 18.8 69.79 18.87 70.35 19.02C70.91 19.16 71.44 19.36 71.92 19.62C72.41 19.88 72.85 20.19 73.25 20.56C73.64 20.93 73.98 21.33 74.26 21.78C74.55 22.22 74.77 22.7 74.92 23.22C75.07 23.74 75.15 24.27 75.15 24.83C75.15 25.4 75.07 25.94 74.92 26.47C74.77 26.99 74.55 27.48 74.26 27.93C73.98 28.39 73.64 28.81 73.25 29.18C72.85 29.56 72.41 29.88 71.92 30.15C71.44 30.42 70.91 30.63 70.35 30.78C69.79 30.92 69.2 31 68.58 31ZM60.6 19.06L60.6 19.82L56.29 19.82L56.29 30.72L54.29 30.72L54.29 19.82L49.99 19.82L49.99 19.06L60.6 19.06ZM77.83 19.06L81.96 19.06C82.67 19.06 83.3 19.14 83.83 19.29C84.37 19.43 84.82 19.64 85.18 19.91C85.54 20.18 85.81 20.5 85.99 20.88C86.17 21.25 86.27 21.65 86.27 22.09C86.27 22.46 86.19 22.8 86.05 23.11C85.91 23.43 85.72 23.72 85.46 23.98C85.21 24.23 84.9 24.45 84.54 24.64C84.18 24.82 83.79 24.96 83.36 25.07L87.69 30.72L85.37 30.72L81.23 25.24L79.83 25.24L79.83 30.72L77.83 30.72L77.83 19.06ZM97.58 19.06L97.58 19.82L91.31 19.82L91.31 23.98L95.51 23.98L95.51 24.74L91.31 24.74L91.31 29.97L97.58 29.97L97.58 30.72L89.31 30.72L89.31 19.06L97.58 19.06ZM68.58 30.41C69.27 30.41 69.87 30.28 70.39 30C70.91 29.72 71.36 29.33 71.71 28.83C72.07 28.33 72.34 27.74 72.52 27.06C72.71 26.38 72.8 25.64 72.8 24.83C72.8 24.03 72.71 23.29 72.52 22.62C72.34 21.95 72.07 21.38 71.71 20.9C71.36 20.41 70.91 20.04 70.39 19.77C69.87 19.5 69.27 19.37 68.58 19.37C67.89 19.37 67.28 19.5 66.75 19.77C66.23 20.04 65.79 20.41 65.44 20.9C65.08 21.38 64.82 21.95 64.64 22.62C64.46 23.29 64.37 24.03 64.37 24.83C64.37 25.64 64.46 26.38 64.64 27.06C64.82 27.74 65.08 28.33 65.44 28.83C65.79 29.33 66.23 29.72 66.75 30C67.28 30.28 67.89 30.41 68.58 30.41ZM79.83 24.65L80.99 24.65C81.44 24.65 81.85 24.59 82.23 24.48Q82.8 24.3 83.22 23.98C83.5 23.77 83.72 23.51 83.87 23.2C84.03 22.9 84.1 22.55 84.1 22.17C84.1 21.82 84.04 21.5 83.92 21.21C83.8 20.91 83.62 20.66 83.4 20.46C83.17 20.25 82.91 20.08 82.6 19.97C82.29 19.85 81.96 19.79 81.59 19.79L79.83 19.79L79.83 24.65Z" fill="#0E091B" fill-opacity="1.000000" fill-rule="evenodd"/>
	<path id="logotype" d="M0 0.24L0 30.13L0.6 30.13L0.6 0.93L14.8 13.54L15.19 13.54L29.89 0.48C29.89 0.48 29.6 0.13 29.49 0L15 12.88L0.5 0L0 0.24ZM15 29.7L29.38 29.71L29.38 6.9L15.19 19.52L14.8 19.52L3.18 9.2L3.58 8.71L15 18.86L29.49 5.97L30 6.22L30 30.03L29.69 30.34L15 30.34L15 29.7ZM10.02 29.71C10.02 30.42 10.57 31 11.25 31C11.93 31 12.48 30.42 12.48 29.71C12.48 29 11.93 28.42 11.25 28.42C10.57 28.42 10.02 29 10.02 29.71ZM10.63 29.71C10.63 29.35 10.91 29.06 11.25 29.06C11.59 29.06 11.87 29.35 11.87 29.71C11.87 30.07 11.59 30.36 11.25 30.36C10.91 30.36 10.63 30.07 10.63 29.71Z" fill="#0E091B" fill-opacity="1.000000" fill-rule="evenodd"/>
	<path id="logotype" d="M0 0.24L0.5 0L15 12.88L29.49 0C29.6 0.13 29.89 0.48 29.89 0.48L15.19 13.54L14.8 13.54L0.6 0.93L0.6 30.13L0 30.13L0 0.24ZM29.38 30.03L29.38 6.9L15.19 19.52L14.8 19.52L3.18 9.2L3.58 8.71L15 18.86L29.49 5.97L30 6.22L30 30.03L29.69 30.34C29.52 30.34 29.38 30.2 29.38 30.03ZM29.69 30.34L15 30.34L15 29.7L29.69 29.71C29.86 29.71 30 29.85 30 30.03M10.63 29.71C10.63 30.07 10.91 30.36 11.25 30.36C11.59 30.36 11.87 30.07 11.87 29.71C11.87 29.35 11.59 29.06 11.25 29.06C10.91 29.06 10.63 29.35 10.63 29.71ZM10.02 29.71C10.02 29 10.57 28.42 11.25 28.42C11.93 28.42 12.48 29 12.48 29.71C12.48 30.42 11.93 31 11.25 31C10.57 31 10.02 30.42 10.02 29.71ZM10.63 29.71L11.87 29.71" stroke="#0E091B" stroke-opacity="0" stroke-width="1.000000"/>
</svg>
